<?xml version="1.0" encoding="UTF-8" standalone="no"?>
<!-- Created with Inkscape (http://www.inkscape.org/) -->

<svg
   xmlns:dc="http://purl.org/dc/elements/1.1/"
   xmlns:cc="http://creativecommons.org/ns#"
   xmlns:rdf="http://www.w3.org/1999/02/22-rdf-syntax-ns#"
   xmlns:svg="http://www.w3.org/2000/svg"
   xmlns="http://www.w3.org/2000/svg"
   xmlns:xlink="http://www.w3.org/1999/xlink"
   xmlns:sodipodi="http://sodipodi.sourceforge.net/DTD/sodipodi-0.dtd"
   xmlns:inkscape="http://www.inkscape.org/namespaces/inkscape"
   width="256"
   height="256"
   viewBox="0 0 67.733331 67.733331"
   version="1.1"
   id="svg8"
   inkscape:version="0.92.4 (5da689c313, 2019-01-14)"
   sodipodi:docname="icon.svg"
   inkscape:export-filename="C:\dev\glTF\Maya2glTF\artwork\icon.png"
   inkscape:export-xdpi="48"
   inkscape:export-ydpi="48">
  <defs
     id="defs2">
    <linearGradient
       inkscape:collect="always"
       xlink:href="#SVGID_2_"
       id="linearGradient4897"
       x1="30.633566"
       y1="263.84204"
       x2="37.005272"
       y2="263.84204"
       gradientUnits="userSpaceOnUse"
       gradientTransform="matrix(2.9718842,0,0,2.9718842,-65.646822,-535.92836)" />
  </defs>
  <sodipodi:namedview
     id="base"
     pagecolor="#ffffff"
     bordercolor="#666666"
     borderopacity="1.0"
     inkscape:pageopacity="0.0"
     inkscape:pageshadow="2"
     inkscape:zoom="5.6"
     inkscape:cx="49.582613"
     inkscape:cy="147.11476"
     inkscape:document-units="mm"
     inkscape:current-layer="layer1"
     showgrid="true"
     units="px"
     inkscape:snap-bbox="true"
     inkscape:bbox-nodes="true"
     inkscape:bbox-paths="true"
     inkscape:snap-bbox-edge-midpoints="true"
     inkscape:snap-bbox-midpoints="true"
     inkscape:window-width="3840"
     inkscape:window-height="2035"
     inkscape:window-x="3827"
     inkscape:window-y="-13"
     inkscape:window-maximized="1"
     inkscape:snap-global="false">
    <inkscape:grid
       type="xygrid"
       id="grid4709"
       spacingx="2.1166666"
       spacingy="2.1166666"
       empspacing="8"
       dotted="false" />
  </sodipodi:namedview>
  <metadata
     id="metadata5">
    <rdf:RDF>
      <cc:Work
         rdf:about="">
        <dc:format>image/svg+xml</dc:format>
        <dc:type
           rdf:resource="http://purl.org/dc/dcmitype/StillImage" />
        <dc:title></dc:title>
      </cc:Work>
    </rdf:RDF>
  </metadata>
  <g
     inkscape:label="Laag 1"
     inkscape:groupmode="layer"
     id="layer1"
     transform="translate(0,-229.26667)">
    <g
       id="g4662"
       transform="matrix(0.09719341,0,0,0.07183164,17.088787,229.20169)">
	
		<linearGradient
   gradientTransform="matrix(1,0,0,-1,0,515.0861)"
   y2="346.98999"
   x2="556.45068"
   y1="288.7998"
   x1="257.08789"
   gradientUnits="userSpaceOnUse"
   id="SVGID_1_">
		<stop
   id="stop4597"
   style="stop-color:#0F6067"
   offset="0" />

		<stop
   id="stop4599"
   style="stop-color:#05ABAC"
   offset="0.5" />

		<stop
   id="stop4601"
   style="stop-color:#58BEC4"
   offset="1" />

	</linearGradient>

	
	<g
   id="g4615">
		
			<linearGradient
   gradientTransform="matrix(1,0,0,-1,0,515.0861)"
   y2="501.94321"
   x2="509.44061"
   y1="12.6952"
   x1="466.6369"
   gradientUnits="userSpaceOnUse"
   id="SVGID_2_">
			<stop
   id="stop4606"
   style="stop-color:#117C83"
   offset="0" />

			<stop
   id="stop4608"
   style="stop-color:#21B5B5"
   offset="0.5" />

			<stop
   id="stop4610"
   style="stop-color:#7ED4D4"
   offset="1" />

		</linearGradient>

		
	</g>

	
		<linearGradient
   gradientTransform="matrix(1,0,0,-1,0,515.0861)"
   y2="146.24631"
   x2="106.0203"
   y1="493.82831"
   x1="218.9566"
   gradientUnits="userSpaceOnUse"
   id="SVGID_3_"
   spreadMethod="pad">
		<stop
   id="stop4617"
   style="stop-color:#9ACCD3"
   offset="0" />

		<stop
   id="stop4619"
   style="stop-color:#72AEB3"
   offset="0.5" />

		<stop
   id="stop4621"
   style="stop-color:#317D7F"
   offset="1" />

	</linearGradient>

	
	
		<linearGradient
   gradientTransform="matrix(1,0,0,-1,0,515.0861)"
   y2="158.6299"
   x2="162.6035"
   y1="97.0485"
   x1="-26.924601"
   gradientUnits="userSpaceOnUse"
   id="SVGID_4_">
		<stop
   id="stop4626"
   style="stop-color:#21626E"
   offset="0" />

		<stop
   id="stop4628"
   style="stop-color:#157C84"
   offset="0.5" />

		<stop
   id="stop4630"
   style="stop-color:#03A3A5"
   offset="1" />

	</linearGradient>

	
	
		<linearGradient
   gradientTransform="matrix(1,0,0,-1,0,515.0861)"
   y2="144.2272"
   x2="-121.268"
   y1="370.39581"
   x1="121.2683"
   gradientUnits="userSpaceOnUse"
   id="SVGID_5_">
		<stop
   id="stop4635"
   style="stop-color:#0B7C81"
   offset="0" />

		<stop
   id="stop4637"
   style="stop-color:#068D90"
   offset="0.5" />

		<stop
   id="stop4639"
   style="stop-color:#16B1B1"
   offset="1" />

	</linearGradient>

	<path
   id="path4642"
   d="m 0,14.6 c -139.62558,619.50018 -69.812792,309.75009 0,0 z"
   class="st4"
   inkscape:connector-curvature="0"
   style="fill:url(#SVGID_5_)"
   sodipodi:nodetypes="cc" />

	
		<linearGradient
   gradientTransform="matrix(1,0,0,-1,0,515.0861)"
   y2="153.35085"
   x2="505.71396"
   y1="94.405197"
   x1="345.5744"
   gradientUnits="userSpaceOnUse"
   id="SVGID_6_">
		<stop
   id="stop4644"
   style="stop-color:#0A8A8F"
   offset="0" />

		
		<stop
   id="stop4648"
   style="stop-color:#1A5964"
   offset="1" />

	</linearGradient>

	
	
		<linearGradient
   gradientTransform="matrix(1,0,0,-1,0,515.0861)"
   y2="300.1543"
   x2="401.47131"
   y1="217.79449"
   x1="533.27441"
   gradientUnits="userSpaceOnUse"
   id="SVGID_7_">
		<stop
   id="stop4653"
   style="stop-color:#256A77"
   offset="0" />

		<stop
   id="stop4655"
   style="stop-color:#0D9499"
   offset="0.5" />

		<stop
   id="stop4657"
   style="stop-color:#06A0A2"
   offset="1" />

	</linearGradient>

	
</g>
    <g
       id="XMLID_24_"
       transform="matrix(0.14325694,0,0,0.14325694,0.08049678,242.80739)">
	<path
   d="m 214.6,315.2 c 6.3,-7 9.6,-17.3 9.6,-31.1 V 206.8 H 211 V 219 h -0.2 c -2.5,-4.7 -6,-8.2 -10.5,-10.5 -4.5,-2.3 -9.4,-3.5 -14.7,-3.5 -7.3,0 -13.5,1.4 -18.5,4.2 -5,2.8 -9,6.3 -12.1,10.7 -3.1,4.4 -5.2,9.1 -6.5,14.4 -1.3,5.2 -2,10.3 -2,15.4 0,5.8 0.8,11.2 2.4,16.4 1.6,5.2 3.9,9.7 7.1,13.6 3.2,3.9 7.1,7 11.8,9.3 4.7,2.3 10.2,3.4 16.5,3.4 2.6,0 5.3,-0.3 7.9,-1 2.7,-0.7 5.2,-1.6 7.5,-2.9 2.3,-1.3 4.4,-2.8 6.3,-4.7 1.9,-1.9 3.4,-4.2 4.6,-6.8 h 0.3 v 5.6 c 0,4.8 -0.5,9.1 -1.4,13.1 -0.9,3.9 -2.4,7.3 -4.5,10 -2.1,2.8 -4.7,5 -7.8,6.5 -3.2,1.6 -7,2.4 -11.6,2.4 -2.3,0 -4.7,-0.2 -7.2,-0.7 -0.9,-0.2 -1.8,-0.4 -2.6,-0.6 -0.9,-0.3 -1.8,-0.7 -2.8,-1 l -0.3,-0.1 v 0 c -35.9,-13.4 -59.5,-36.2 -59.5,-62 0,-41.2 60.1,-74.7 134.2,-74.7 41.3,0 78.3,9.4 102.9,25.7 -26.9,-27.3 -75,-46.6 -130.1,-46.6 -84.3,0 -152.7,42.7 -152.7,95.5 0,36 31.9,67.4 78.9,83.6 37.7,1.2 56.9,-5.8 68.2,-18.5 z m -5.7,-56.1 c -0.9,3.9 -2.4,7.4 -4.3,10.5 -2,3.1 -4.5,5.6 -7.8,7.5 -3.2,1.9 -7.1,2.9 -11.7,2.9 -4.6,0 -8.4,-1 -11.4,-2.9 -3.1,-1.9 -5.5,-4.4 -7.4,-7.5 -1.9,-3.1 -3.2,-6.6 -3.9,-10.4 -0.8,-3.8 -1.1,-7.6 -1.1,-11.4 0,-4 0.5,-7.9 1.4,-11.6 0.9,-3.7 2.4,-7 4.4,-9.8 2,-2.8 4.6,-5.1 7.8,-6.8 3.2,-1.7 7,-2.5 11.4,-2.5 4.4,0 8.1,0.9 11.1,2.6 3,1.7 5.5,4.1 7.4,6.9 1.9,2.9 3.3,6.1 4.2,9.7 0.9,3.6 1.3,7.2 1.3,10.9 0,4.1 -0.5,8 -1.4,11.9 z"
   class="st0"
   id="XMLID_28_"
   inkscape:connector-curvature="0"
   style="fill:#86c540" />

	<path
   d="m 221,323.2 c -8,7.3 -22.3,15.6 -41.8,18.8 13,2.3 26.8,3.5 41,3.5 54.9,0 102.9,-19.1 129.8,-46.3 -24.6,16.2 -61.5,25.4 -102.6,25.4 -9.7,0.1 -17.2,-0.3 -26.4,-1.4 z"
   class="st0"
   id="XMLID_29_"
   inkscape:connector-curvature="0"
   style="fill:#86c540" />

	<polygon
   points="260.5,207.3 330.5,207.3 330.5,224.4 305.5,224.4 305.5,291.6 285.5,291.6 285.5,224.4 260.5,224.4 "
   class="st0"
   id="XMLID_30_"
   style="fill:#86c540" />

	<polygon
   points="340.9,207.3 402.4,207.3 402.4,224.4 360.8,224.4 360.8,240.2 397.2,240.2 397.2,257.2 360.8,257.2 360.8,291.6 340.9,291.6 "
   class="st0"
   id="XMLID_31_"
   style="fill:#86c540" />

	<rect
   height="105"
   width="13.9"
   class="st0"
   y="186.3"
   x="235.7"
   id="XMLID_32_"
   style="fill:#86c540" />

	<polygon
   points="413.8,209.8 410.7,209.8 410.7,207.5 419.6,207.5 419.6,209.8 416.5,209.8 416.5,217.9 413.8,217.9 "
   class="st0"
   id="XMLID_33_"
   style="fill:#86c540" />

	<polygon
   points="423.4,210 423.4,210 423.4,217.9 420.8,217.9 420.8,207.5 424.9,207.5 426.7,214.4 428.5,207.5 432.5,207.5 432.5,217.9 429.9,217.9 429.9,210 427.7,217.9 425.6,217.9 "
   class="st0"
   id="XMLID_34_"
   style="fill:#86c540" />

</g>
    <path
       style="opacity:1;fill:url(#linearGradient4897);fill-opacity:1.0;fill-rule:nonzero;stroke:none;stroke-width:2.73336911;stroke-linecap:round;stroke-linejoin:round;stroke-miterlimit:4;stroke-dasharray:none;stroke-opacity:1"
       d="m 31.716862,233.68896 v 12.58097 h -6.324276 l 9.467989,16.40043 9.467986,-16.40043 h -6.31967 v -12.58097 z"
       id="path4797"
       inkscape:connector-curvature="0" />
  </g>
  <style
     id="style4595"
     type="text/css">
	.st0{fill:url(#SVGID_1_);}
	.st1{fill:url(#SVGID_2_);}
	.st2{fill:url(#SVGID_3_);}
	.st3{fill:url(#SVGID_4_);}
	.st4{fill:url(#SVGID_5_);}
	.st5{fill:url(#SVGID_6_);}
	.st6{fill:url(#SVGID_7_);}
</style>
  <style
     id="style4728"
     type="text/css">
	.st0{fill:#86C540;}
</style>
</svg>
