<svg xmlns="http://www.w3.org/2000/svg" xmlns:xlink="http://www.w3.org/1999/xlink" width="35" height="35" viewBox="0 0 67.7 67.7">
    <defs>
        <linearGradient xlink:href="#a" id="c" x1="30.6" y1="263.8" x2="37" y2="263.8" gradientUnits="userSpaceOnUse" gradientTransform="translate(-65.6 -536) scale(2.97188)"/>
    </defs>
    <g transform="matrix(.0972 0 0 .07183 17 -.1)">
        <linearGradient gradientTransform="matrix(1 0 0 -1 0 515)" y2="501.9" x2="509.4" y1="12.7" x1="466.6" gradientUnits="userSpaceOnUse" id="a">
            <stop offset="0" stop-color="#117c83"/>
            <stop offset=".5" stop-color="#21b5b5"/>
            <stop offset="1" stop-color="#7ed4d4"/>
        </linearGradient>
        <linearGradient gradientTransform="matrix(1 0 0 -1 0 515)" y2="144.2" x2="-121.3" y1="370.4" x1="121.3" gradientUnits="userSpaceOnUse" id="b">
            <stop offset="0" stop-color="#0b7c81"/>
            <stop offset=".5" stop-color="#068d90"/>
            <stop offset="1" stop-color="#16b1b1"/>
        </linearGradient>
        <path d="M0 14.6c-139.6 619.5-69.8 309.8 0 0z" fill="url(#b)"/>
    </g>
    <path d="M30.7 58.7c1-1 1.4-2.5 1.4-4.5v-11h-1.9v1.7c-.4-.7-.9-1.2-1.5-1.5a5.4 5.4 0 00-4.8 0c-.7.5-1.3 1-1.7 1.6a6 6 0 00-1 2 7.9 7.9 0 000 4.6l1.1 2a5 5 0 005.2 1.6 4.4 4.4 0 002-1l.7-1v.8c0 .7 0 1.3-.2 1.9-.1.5-.3 1-.6 1.4a3 3 0 01-1.1 1c-.5.2-1 .3-1.7.3a5.2 5.2 0 01-1.4-.2l-.4-.2c-5.2-1.9-8.6-5.2-8.6-8.9 0-5.9 8.6-10.7 19.2-10.7 6 0 11.3 1.4 14.8 3.7a27 27 0 00-18.7-6.7c-12 0-21.8 6.2-21.8 13.7 0 5.2 4.5 9.7 11.3 12 5.4.2 8.1-.8 9.7-2.6zm-.8-8a5 5 0 01-.6 1.4 3.2 3.2 0 01-2.8 1.5 3 3 0 01-2.7-1.5 4.3 4.3 0 01-.5-1.5 7.9 7.9 0 010-3.3c.1-.5.4-1 .6-1.4a3.2 3.2 0 012.8-1.3 3 3 0 011.6.4c.4.2.8.6 1 1 .3.4.5.8.6 1.4a7.5 7.5 0 010 3.2zm1.8 9.1a11.8 11.8 0 01-6 2.7c1.8.3 3.8.5 5.8.5 8 0 14.8-2.7 18.6-6.6A27.4 27.4 0 0135.4 60c-1.3 0-2.4 0-3.7-.2z" class="st0" fill="#86c540"/>
    <path class="st0" fill="#86c540" d="M37.3 43.2h10v2.4h-3.5v9.7h-2.9v-9.7h-3.6zm11.5 0h8.8v2.4h-6V48H57v2.4h-5.2v5h-2.9zm-15-3h2v15h-2zm25.5 3.4h-.5v-.4h1.3v.4h-.4v1.1h-.4zm1.4 0v1.1h-.4v-1.5h.6l.2 1 .3-1h.6v1.5h-.4v-1.1l-.3 1.1H61z"/>
    <path d="M31.7 233.7v12.6h-6.3l9.5 16.4 9.4-16.4H38v-12.6z" fill="url(#c)" stroke-width="2.7" stroke-linecap="round" stroke-linejoin="round" transform="translate(0 -229.3)"/>
</svg>
